<svg xmlns="http://www.w3.org/2000/svg" xmlns:xlink="http://www.w3.org/1999/xlink" width="500" zoomAndPan="magnify" viewBox="0 0 375 374.999991" height="500" preserveAspectRatio="xMidYMid meet" version="1.0"><defs><g/><clipPath id="255f042ebf"><path d="M 39.015625 37.5 L 337.5 37.5 L 337.5 335.984375 L 39.015625 335.984375 Z M 39.015625 37.5 " clip-rule="nonzero"/></clipPath><clipPath id="134142eb92"><path d="M 188.257812 37.5 C 105.835938 37.5 39.015625 104.316406 39.015625 186.742188 C 39.015625 269.164062 105.835938 335.984375 188.257812 335.984375 C 270.683594 335.984375 337.5 269.164062 337.5 186.742188 C 337.5 104.316406 270.683594 37.5 188.257812 37.5 Z M 188.257812 37.5 " clip-rule="nonzero"/></clipPath><clipPath id="376e325e2e"><path d="M 102.503906 113.914062 L 200.753906 113.914062 L 200.753906 245.914062 L 102.503906 245.914062 Z M 102.503906 113.914062 " clip-rule="nonzero"/></clipPath></defs><g clip-path="url(#255f042ebf)"><g clip-path="url(#134142eb92)"><path fill="#3f4d34" d="M 39.015625 37.5 L 337.5 37.5 L 337.5 335.984375 L 39.015625 335.984375 Z M 39.015625 37.5 " fill-opacity="1" fill-rule="nonzero"/></g></g><g fill="#f5bda8" fill-opacity="1"><g transform="translate(199.48809, 242.241195)"><g><path d="M 14.015625 -125.1875 L 41.296875 -125.1875 L 41.296875 -25.59375 L 84.640625 -25.59375 L 84.640625 0 L 14.015625 0 Z M 14.015625 -125.1875 "/></g></g></g><g clip-path="url(#376e325e2e)"><path fill="#f5bda8" d="M 197.757812 113.914062 L 116.910156 113.914062 C 115.988281 113.917969 115.074219 114.007812 114.167969 114.1875 C 113.265625 114.371094 112.386719 114.636719 111.53125 114.992188 C 110.679688 115.34375 109.871094 115.777344 109.105469 116.292969 C 108.335938 116.804688 107.628906 117.386719 106.976562 118.039062 C 106.324219 118.691406 105.738281 119.402344 105.226562 120.167969 C 104.714844 120.9375 104.28125 121.746094 103.925781 122.597656 C 103.574219 123.449219 103.304688 124.328125 103.125 125.234375 C 102.941406 126.136719 102.851562 127.050781 102.851562 127.976562 L 102.851562 228.238281 C 102.851562 229.003906 102.925781 229.761719 103.074219 230.511719 C 103.222656 231.261719 103.445312 231.988281 103.734375 232.695312 C 104.027344 233.402344 104.386719 234.074219 104.8125 234.710938 C 105.238281 235.347656 105.71875 235.9375 106.257812 236.480469 C 106.800781 237.019531 107.386719 237.503906 108.023438 237.929688 C 108.660156 238.355469 109.332031 238.714844 110.035156 239.007812 C 110.742188 239.304688 111.472656 239.523438 112.222656 239.675781 C 112.972656 239.828125 113.730469 239.902344 114.496094 239.902344 L 121.96875 239.902344 L 121.96875 243.800781 C 121.980469 243.984375 122.011719 244.167969 122.066406 244.34375 C 122.121094 244.523438 122.199219 244.691406 122.292969 244.851562 C 122.390625 245.011719 122.503906 245.15625 122.636719 245.285156 C 122.769531 245.417969 122.914062 245.53125 123.074219 245.625 C 123.234375 245.722656 123.402344 245.796875 123.578125 245.851562 C 123.757812 245.90625 123.9375 245.9375 124.125 245.945312 C 124.3125 245.957031 124.496094 245.945312 124.675781 245.90625 C 124.859375 245.871094 125.035156 245.816406 125.203125 245.738281 L 129.761719 243.207031 L 134.320312 245.738281 C 134.667969 245.953125 135.046875 246.066406 135.457031 246.078125 C 135.761719 246.078125 136.050781 246.019531 136.332031 245.90625 C 136.609375 245.789062 136.855469 245.625 137.070312 245.410156 C 137.285156 245.199219 137.449219 244.953125 137.5625 244.671875 C 137.679688 244.394531 137.738281 244.101562 137.738281 243.800781 L 137.738281 239.882812 L 197.757812 239.882812 C 198.058594 239.882812 198.351562 239.824219 198.628906 239.707031 C 198.910156 239.59375 199.15625 239.425781 199.371094 239.214844 C 199.582031 239 199.746094 238.753906 199.863281 238.472656 C 199.980469 238.195312 200.035156 237.90625 200.035156 237.601562 L 200.035156 116.195312 C 200.035156 115.890625 199.980469 115.601562 199.863281 115.320312 C 199.746094 115.042969 199.582031 114.796875 199.371094 114.582031 C 199.15625 114.367188 198.910156 114.203125 198.628906 114.089844 C 198.351562 113.972656 198.058594 113.914062 197.757812 113.914062 Z M 107.25 127.976562 C 107.25 127.433594 107.296875 126.898438 107.386719 126.363281 C 107.480469 125.832031 107.613281 125.308594 107.792969 124.800781 C 107.972656 124.289062 108.191406 123.796875 108.453125 123.324219 C 108.714844 122.851562 109.015625 122.402344 109.351562 121.980469 C 109.6875 121.554688 110.058594 121.164062 110.460938 120.804688 C 110.863281 120.441406 111.292969 120.117188 111.75 119.828125 C 112.207031 119.539062 112.683594 119.292969 113.183594 119.082031 C 113.683594 118.875 114.195312 118.707031 114.722656 118.585938 L 114.722656 216.570312 L 114.496094 216.570312 C 113.175781 216.578125 111.894531 216.804688 110.648438 217.25 C 109.40625 217.695312 108.273438 218.335938 107.25 219.167969 Z M 133.339844 240.15625 L 130.902344 238.832031 C 130.574219 238.648438 130.226562 238.558594 129.851562 238.558594 C 129.480469 238.558594 129.128906 238.648438 128.804688 238.832031 L 126.34375 240.15625 L 126.34375 230.425781 L 133.316406 230.425781 Z M 195.570312 235.597656 L 137.738281 235.597656 L 137.738281 228.214844 C 137.738281 227.910156 137.679688 227.621094 137.5625 227.34375 C 137.449219 227.0625 137.285156 226.816406 137.070312 226.601562 C 136.855469 226.390625 136.609375 226.226562 136.332031 226.109375 C 136.050781 225.992188 135.761719 225.9375 135.457031 225.9375 L 124.066406 225.9375 C 123.761719 225.9375 123.472656 225.992188 123.191406 226.109375 C 122.914062 226.226562 122.667969 226.390625 122.453125 226.601562 C 122.238281 226.816406 122.074219 227.0625 121.960938 227.34375 C 121.84375 227.621094 121.785156 227.914062 121.785156 228.214844 L 121.785156 235.484375 L 114.496094 235.484375 C 114 235.511719 113.507812 235.488281 113.019531 235.414062 C 112.53125 235.34375 112.054688 235.222656 111.589844 235.050781 C 111.125 234.882812 110.683594 234.667969 110.261719 234.40625 C 109.84375 234.148438 109.453125 233.847656 109.09375 233.507812 C 108.734375 233.167969 108.414062 232.796875 108.128906 232.390625 C 107.847656 231.984375 107.605469 231.554688 107.410156 231.101562 C 107.214844 230.648438 107.066406 230.179688 106.96875 229.695312 C 106.867188 229.210938 106.820312 228.71875 106.820312 228.226562 C 106.820312 227.730469 106.867188 227.242188 106.96875 226.757812 C 107.066406 226.273438 107.214844 225.804688 107.410156 225.351562 C 107.605469 224.894531 107.847656 224.464844 108.128906 224.0625 C 108.414062 223.65625 108.734375 223.285156 109.09375 222.945312 C 109.453125 222.605469 109.84375 222.304688 110.261719 222.042969 C 110.683594 221.785156 111.125 221.570312 111.589844 221.398438 C 112.054688 221.230469 112.53125 221.109375 113.019531 221.035156 C 113.507812 220.960938 114 220.941406 114.496094 220.96875 L 195.570312 220.96875 Z M 195.570312 216.683594 L 119.121094 216.683594 L 119.121094 118.3125 L 195.570312 118.3125 Z M 195.570312 216.683594 " fill-opacity="1" fill-rule="nonzero"/></g><path fill="#f5bda8" d="M 129.167969 162.453125 L 180.097656 162.453125 C 180.398438 162.453125 180.691406 162.394531 180.96875 162.277344 C 181.25 162.164062 181.496094 161.996094 181.710938 161.785156 C 181.921875 161.570312 182.085938 161.324219 182.203125 161.042969 C 182.320312 160.765625 182.375 160.476562 182.375 160.171875 L 182.375 140.347656 C 182.375 140.046875 182.320312 139.753906 182.203125 139.476562 C 182.085938 139.195312 181.921875 138.949219 181.710938 138.738281 C 181.496094 138.523438 181.25 138.359375 180.96875 138.242188 C 180.691406 138.128906 180.398438 138.070312 180.097656 138.070312 L 129.167969 138.070312 C 128.867188 138.070312 128.578125 138.128906 128.296875 138.242188 C 128.019531 138.359375 127.773438 138.523438 127.558594 138.738281 C 127.34375 138.949219 127.179688 139.195312 127.0625 139.476562 C 126.949219 139.753906 126.890625 140.046875 126.890625 140.347656 L 126.890625 160.242188 C 126.898438 160.539062 126.964844 160.820312 127.082031 161.09375 C 127.203125 161.363281 127.367188 161.601562 127.582031 161.808594 C 127.792969 162.015625 128.039062 162.171875 128.3125 162.285156 C 128.585938 162.394531 128.871094 162.453125 129.167969 162.453125 Z M 131.449219 142.535156 L 177.910156 142.535156 L 177.910156 158.03125 L 131.355469 158.03125 Z M 131.449219 142.535156 " fill-opacity="1" fill-rule="nonzero"/><g fill="#f5bda8" fill-opacity="1"><g transform="translate(112.64974, 266.381935)"><g><path d="M 3.191406 -1.539062 L 3.191406 -14.957031 L 1.648438 -14.957031 L 1.648438 0 L 8.535156 0 L 8.535156 -1.539062 Z M 3.191406 -1.539062 "/></g></g></g><g fill="#f5bda8" fill-opacity="1"><g transform="translate(121.624139, 266.381935)"><g><path d="M 3.210938 -13.023438 C 3.011719 -13.199219 2.773438 -13.308594 2.507812 -13.308594 C 2.242188 -13.308594 2 -13.199219 1.824219 -13.023438 C 1.628906 -12.824219 1.539062 -12.582031 1.539062 -12.320312 C 1.539062 -12.054688 1.628906 -11.8125 1.824219 -11.636719 C 2 -11.4375 2.242188 -11.351562 2.507812 -11.351562 C 2.773438 -11.351562 3.011719 -11.4375 3.210938 -11.636719 C 3.386719 -11.8125 3.496094 -12.054688 3.496094 -12.320312 C 3.496094 -12.582031 3.386719 -12.824219 3.210938 -13.023438 Z M 3.300781 0 L 3.300781 -9.679688 L 1.761719 -9.679688 L 1.761719 0 Z M 3.300781 0 "/></g></g></g><g fill="#f5bda8" fill-opacity="1"><g transform="translate(126.661244, 266.381935)"><g><path d="M 3.191406 0 L 3.191406 -1.648438 C 3.253906 -1.519531 3.367188 -1.40625 3.453125 -1.320312 C 4.378906 -0.285156 5.5 0.21875 6.839844 0.21875 C 8.160156 0.21875 9.28125 -0.285156 10.207031 -1.320312 C 11.085938 -2.308594 11.546875 -3.476562 11.546875 -4.839844 C 11.546875 -6.179688 11.085938 -7.347656 10.207031 -8.359375 C 9.28125 -9.371094 8.160156 -9.898438 6.839844 -9.898438 C 5.5 -9.898438 4.378906 -9.371094 3.453125 -8.359375 C 3.367188 -8.25 3.253906 -8.140625 3.191406 -8.007812 L 3.191406 -16.5 L 1.648438 -16.5 L 1.648438 0 Z M 10.007812 -4.839844 C 10.007812 -3.894531 9.679688 -3.058594 9.019531 -2.375 C 8.359375 -1.671875 7.546875 -1.320312 6.597656 -1.320312 C 5.632812 -1.320312 4.816406 -1.671875 4.15625 -2.375 C 3.496094 -3.058594 3.191406 -3.894531 3.191406 -4.839844 C 3.191406 -5.761719 3.496094 -6.597656 4.15625 -7.304688 C 4.816406 -8.007812 5.632812 -8.359375 6.597656 -8.359375 C 7.546875 -8.359375 8.359375 -8.007812 9.019531 -7.304688 C 9.679688 -6.597656 10.007812 -5.761719 10.007812 -4.839844 Z M 10.007812 -4.839844 "/></g></g></g><g fill="#f5bda8" fill-opacity="1"><g transform="translate(139.199013, 266.381935)"><g><path d="M 6.621094 -7.675781 L 6.621094 -9.679688 C 6.3125 -9.8125 5.984375 -9.875 5.652344 -9.875 C 4.554688 -9.875 3.761719 -9.261719 3.253906 -8.074219 L 3.191406 -7.675781 L 3.191406 -9.679688 L 1.648438 -9.679688 L 1.648438 0 L 3.191406 0 L 3.191406 -4.839844 C 3.191406 -5.632812 3.367188 -6.335938 3.738281 -6.972656 C 3.914062 -7.304688 4.15625 -7.589844 4.445312 -7.808594 C 4.730469 -8.027344 5.082031 -8.160156 5.476562 -8.160156 C 5.875 -8.160156 6.246094 -7.984375 6.621094 -7.675781 Z M 6.621094 -7.675781 "/></g></g></g><g fill="#f5bda8" fill-opacity="1"><g transform="translate(146.039799, 266.381935)"><g><path d="M 9.570312 -4.882812 C 9.570312 -3.914062 9.21875 -3.101562 8.535156 -2.417969 C 7.832031 -1.714844 7.015625 -1.386719 6.050781 -1.386719 C 5.082031 -1.386719 4.246094 -1.714844 3.5625 -2.417969 C 2.859375 -3.101562 2.53125 -3.914062 2.53125 -4.882812 C 2.53125 -5.851562 2.859375 -6.664062 3.5625 -7.371094 C 4.246094 -8.050781 5.082031 -8.402344 6.050781 -8.402344 C 7.015625 -8.402344 7.832031 -8.050781 8.535156 -7.371094 C 9.21875 -6.664062 9.570312 -5.851562 9.570312 -4.882812 Z M 11.109375 -4.882812 C 11.109375 -6.269531 10.601562 -7.457031 9.613281 -8.445312 C 8.621094 -9.4375 7.433594 -9.941406 6.050781 -9.941406 C 4.640625 -9.941406 3.453125 -9.4375 2.464844 -8.445312 C 1.472656 -7.457031 0.988281 -6.269531 0.988281 -4.882812 C 0.988281 -3.476562 1.472656 -2.289062 2.464844 -1.320312 C 3.453125 -0.328125 4.664062 0.152344 6.050781 0.152344 C 7.414062 0.152344 8.621094 -0.328125 9.613281 -1.320312 C 10.601562 -2.289062 11.109375 -3.476562 11.109375 -4.882812 Z M 11.109375 -4.882812 "/></g></g></g><g fill="#f5bda8" fill-opacity="1"><g transform="translate(158.137645, 266.381935)"><g><path d="M 3.035156 -1.363281 C 2.660156 -1.628906 2.375 -2.066406 2.222656 -2.707031 L 0.59375 -2.707031 C 0.925781 -0.703125 2.199219 0.285156 4.445312 0.285156 C 4.972656 0.285156 5.457031 0.242188 5.917969 0.109375 C 6.378906 -0.0234375 6.773438 -0.199219 7.148438 -0.441406 C 7.898438 -0.945312 8.269531 -1.714844 8.269531 -2.75 C 8.269531 -3.804688 7.789062 -4.554688 6.773438 -5.039062 C 6.355469 -5.234375 5.894531 -5.390625 5.390625 -5.5 C 4.90625 -5.609375 4.445312 -5.742188 4.027344 -5.875 C 3.585938 -6.003906 3.234375 -6.179688 2.949219 -6.378906 C 2.660156 -6.578125 2.507812 -6.886719 2.507812 -7.324219 C 2.507812 -7.765625 2.683594 -8.09375 3.035156 -8.292969 C 3.386719 -8.511719 3.804688 -8.621094 4.265625 -8.621094 C 4.75 -8.621094 5.167969 -8.511719 5.5 -8.335938 C 5.828125 -8.160156 6.09375 -7.808594 6.246094 -7.28125 L 7.898438 -7.28125 C 7.699219 -8.25 7.28125 -8.929688 6.664062 -9.304688 C 6.027344 -9.699219 5.257812 -9.898438 4.3125 -9.898438 C 3.386719 -9.898438 2.574219 -9.636719 1.890625 -9.152344 C 1.230469 -8.644531 0.878906 -7.917969 0.878906 -6.953125 C 0.878906 -6.488281 1.011719 -6.070312 1.253906 -5.71875 C 1.519531 -5.34375 1.890625 -5.058594 2.375 -4.839844 C 2.816406 -4.640625 3.277344 -4.488281 3.761719 -4.355469 C 4.246094 -4.246094 4.707031 -4.113281 5.148438 -3.980469 C 6.136719 -3.652344 6.644531 -3.167969 6.644531 -2.550781 C 6.644531 -1.496094 5.9375 -0.988281 4.53125 -0.988281 C 3.9375 -0.988281 3.429688 -1.101562 3.035156 -1.363281 Z M 3.035156 -1.363281 "/></g></g></g><g fill="#f5bda8" fill-opacity="1"><g transform="translate(166.98007, 266.381935)"><g/></g></g><g fill="#f5bda8" fill-opacity="1"><g transform="translate(172.919016, 266.381935)"><g><path d="M 3.191406 0 L 3.191406 -16.5 L 1.648438 -16.5 L 1.648438 0 Z M 3.191406 0 "/></g></g></g><g fill="#f5bda8" fill-opacity="1"><g transform="translate(177.75815, 266.381935)"><g><path d="M 3.210938 -13.023438 C 3.011719 -13.199219 2.773438 -13.308594 2.507812 -13.308594 C 2.242188 -13.308594 2 -13.199219 1.824219 -13.023438 C 1.628906 -12.824219 1.539062 -12.582031 1.539062 -12.320312 C 1.539062 -12.054688 1.628906 -11.8125 1.824219 -11.636719 C 2 -11.4375 2.242188 -11.351562 2.507812 -11.351562 C 2.773438 -11.351562 3.011719 -11.4375 3.210938 -11.636719 C 3.386719 -11.8125 3.496094 -12.054688 3.496094 -12.320312 C 3.496094 -12.582031 3.386719 -12.824219 3.210938 -13.023438 Z M 3.300781 0 L 3.300781 -9.679688 L 1.761719 -9.679688 L 1.761719 0 Z M 3.300781 0 "/></g></g></g><g fill="#f5bda8" fill-opacity="1"><g transform="translate(182.795255, 266.381935)"><g><path d="M 3.191406 0 L 3.191406 -1.648438 C 3.253906 -1.519531 3.367188 -1.40625 3.453125 -1.320312 C 4.378906 -0.285156 5.5 0.21875 6.839844 0.21875 C 8.160156 0.21875 9.28125 -0.285156 10.207031 -1.320312 C 11.085938 -2.308594 11.546875 -3.476562 11.546875 -4.839844 C 11.546875 -6.179688 11.085938 -7.347656 10.207031 -8.359375 C 9.28125 -9.371094 8.160156 -9.898438 6.839844 -9.898438 C 5.5 -9.898438 4.378906 -9.371094 3.453125 -8.359375 C 3.367188 -8.25 3.253906 -8.140625 3.191406 -8.007812 L 3.191406 -16.5 L 1.648438 -16.5 L 1.648438 0 Z M 10.007812 -4.839844 C 10.007812 -3.894531 9.679688 -3.058594 9.019531 -2.375 C 8.359375 -1.671875 7.546875 -1.320312 6.597656 -1.320312 C 5.632812 -1.320312 4.816406 -1.671875 4.15625 -2.375 C 3.496094 -3.058594 3.191406 -3.894531 3.191406 -4.839844 C 3.191406 -5.761719 3.496094 -6.597656 4.15625 -7.304688 C 4.816406 -8.007812 5.632812 -8.359375 6.597656 -8.359375 C 7.546875 -8.359375 8.359375 -8.007812 9.019531 -7.304688 C 9.679688 -6.597656 10.007812 -5.761719 10.007812 -4.839844 Z M 10.007812 -4.839844 "/></g></g></g><g fill="#f5bda8" fill-opacity="1"><g transform="translate(195.333023, 266.381935)"><g><path d="M 6.621094 -7.675781 L 6.621094 -9.679688 C 6.3125 -9.8125 5.984375 -9.875 5.652344 -9.875 C 4.554688 -9.875 3.761719 -9.261719 3.253906 -8.074219 L 3.191406 -7.675781 L 3.191406 -9.679688 L 1.648438 -9.679688 L 1.648438 0 L 3.191406 0 L 3.191406 -4.839844 C 3.191406 -5.632812 3.367188 -6.335938 3.738281 -6.972656 C 3.914062 -7.304688 4.15625 -7.589844 4.445312 -7.808594 C 4.730469 -8.027344 5.082031 -8.160156 5.476562 -8.160156 C 5.875 -8.160156 6.246094 -7.984375 6.621094 -7.675781 Z M 6.621094 -7.675781 "/></g></g></g><g fill="#f5bda8" fill-opacity="1"><g transform="translate(202.173809, 266.381935)"><g><path d="M 9.347656 -4.839844 C 9.347656 -3.894531 9.019531 -3.058594 8.359375 -2.375 C 7.699219 -1.671875 6.886719 -1.320312 5.9375 -1.320312 C 4.972656 -1.320312 4.15625 -1.671875 3.496094 -2.375 C 2.835938 -3.058594 2.53125 -3.894531 2.53125 -4.839844 C 2.53125 -5.761719 2.835938 -6.597656 3.496094 -7.304688 C 4.15625 -8.007812 4.972656 -8.359375 5.9375 -8.359375 C 6.886719 -8.359375 7.699219 -8.007812 8.359375 -7.304688 C 9.019531 -6.597656 9.347656 -5.761719 9.347656 -4.839844 Z M 10.890625 0 L 10.890625 -9.679688 L 9.347656 -9.679688 L 9.347656 -8.007812 C 9.261719 -8.140625 9.152344 -8.25 9.0625 -8.359375 C 8.140625 -9.371094 7.015625 -9.898438 5.699219 -9.898438 C 4.355469 -9.898438 3.234375 -9.371094 2.308594 -8.359375 C 1.429688 -7.347656 0.988281 -6.179688 0.988281 -4.839844 C 0.988281 -3.476562 1.429688 -2.308594 2.308594 -1.320312 C 3.234375 -0.285156 4.355469 0.21875 5.699219 0.21875 C 7.015625 0.21875 8.140625 -0.285156 9.0625 -1.320312 C 9.152344 -1.40625 9.261719 -1.519531 9.347656 -1.648438 L 9.347656 0 Z M 10.890625 0 "/></g></g></g><g fill="#f5bda8" fill-opacity="1"><g transform="translate(214.711578, 266.381935)"><g><path d="M 3.035156 -1.363281 C 2.660156 -1.628906 2.375 -2.066406 2.222656 -2.707031 L 0.59375 -2.707031 C 0.925781 -0.703125 2.199219 0.285156 4.445312 0.285156 C 4.972656 0.285156 5.457031 0.242188 5.917969 0.109375 C 6.378906 -0.0234375 6.773438 -0.199219 7.148438 -0.441406 C 7.898438 -0.945312 8.269531 -1.714844 8.269531 -2.75 C 8.269531 -3.804688 7.789062 -4.554688 6.773438 -5.039062 C 6.355469 -5.234375 5.894531 -5.390625 5.390625 -5.5 C 4.90625 -5.609375 4.445312 -5.742188 4.027344 -5.875 C 3.585938 -6.003906 3.234375 -6.179688 2.949219 -6.378906 C 2.660156 -6.578125 2.507812 -6.886719 2.507812 -7.324219 C 2.507812 -7.765625 2.683594 -8.09375 3.035156 -8.292969 C 3.386719 -8.511719 3.804688 -8.621094 4.265625 -8.621094 C 4.75 -8.621094 5.167969 -8.511719 5.5 -8.335938 C 5.828125 -8.160156 6.09375 -7.808594 6.246094 -7.28125 L 7.898438 -7.28125 C 7.699219 -8.25 7.28125 -8.929688 6.664062 -9.304688 C 6.027344 -9.699219 5.257812 -9.898438 4.3125 -9.898438 C 3.386719 -9.898438 2.574219 -9.636719 1.890625 -9.152344 C 1.230469 -8.644531 0.878906 -7.917969 0.878906 -6.953125 C 0.878906 -6.488281 1.011719 -6.070312 1.253906 -5.71875 C 1.519531 -5.34375 1.890625 -5.058594 2.375 -4.839844 C 2.816406 -4.640625 3.277344 -4.488281 3.761719 -4.355469 C 4.246094 -4.246094 4.707031 -4.113281 5.148438 -3.980469 C 6.136719 -3.652344 6.644531 -3.167969 6.644531 -2.550781 C 6.644531 -1.496094 5.9375 -0.988281 4.53125 -0.988281 C 3.9375 -0.988281 3.429688 -1.101562 3.035156 -1.363281 Z M 3.035156 -1.363281 "/></g></g></g><g fill="#f5bda8" fill-opacity="1"><g transform="translate(223.554003, 266.381935)"><g/></g></g><g fill="#f5bda8" fill-opacity="1"><g transform="translate(229.492949, 266.381935)"><g><path d="M 3.191406 0 L 3.191406 -16.5 L 1.648438 -16.5 L 1.648438 0 Z M 3.191406 0 "/></g></g></g><g fill="#f5bda8" fill-opacity="1"><g transform="translate(234.332083, 266.381935)"><g><path d="M 3.210938 -13.023438 C 3.011719 -13.199219 2.773438 -13.308594 2.507812 -13.308594 C 2.242188 -13.308594 2 -13.199219 1.824219 -13.023438 C 1.628906 -12.824219 1.539062 -12.582031 1.539062 -12.320312 C 1.539062 -12.054688 1.628906 -11.8125 1.824219 -11.636719 C 2 -11.4375 2.242188 -11.351562 2.507812 -11.351562 C 2.773438 -11.351562 3.011719 -11.4375 3.210938 -11.636719 C 3.386719 -11.8125 3.496094 -12.054688 3.496094 -12.320312 C 3.496094 -12.582031 3.386719 -12.824219 3.210938 -13.023438 Z M 3.300781 0 L 3.300781 -9.679688 L 1.761719 -9.679688 L 1.761719 0 Z M 3.300781 0 "/></g></g></g><g fill="#f5bda8" fill-opacity="1"><g transform="translate(239.369188, 266.381935)"><g><path d="M 3.191406 0 L 3.191406 -1.648438 C 3.253906 -1.519531 3.367188 -1.40625 3.453125 -1.320312 C 4.378906 -0.285156 5.5 0.21875 6.839844 0.21875 C 8.160156 0.21875 9.28125 -0.285156 10.207031 -1.320312 C 11.085938 -2.308594 11.546875 -3.476562 11.546875 -4.839844 C 11.546875 -6.179688 11.085938 -7.347656 10.207031 -8.359375 C 9.28125 -9.371094 8.160156 -9.898438 6.839844 -9.898438 C 5.5 -9.898438 4.378906 -9.371094 3.453125 -8.359375 C 3.367188 -8.25 3.253906 -8.140625 3.191406 -8.007812 L 3.191406 -16.5 L 1.648438 -16.5 L 1.648438 0 Z M 10.007812 -4.839844 C 10.007812 -3.894531 9.679688 -3.058594 9.019531 -2.375 C 8.359375 -1.671875 7.546875 -1.320312 6.597656 -1.320312 C 5.632812 -1.320312 4.816406 -1.671875 4.15625 -2.375 C 3.496094 -3.058594 3.191406 -3.894531 3.191406 -4.839844 C 3.191406 -5.761719 3.496094 -6.597656 4.15625 -7.304688 C 4.816406 -8.007812 5.632812 -8.359375 6.597656 -8.359375 C 7.546875 -8.359375 8.359375 -8.007812 9.019531 -7.304688 C 9.679688 -6.597656 10.007812 -5.761719 10.007812 -4.839844 Z M 10.007812 -4.839844 "/></g></g></g><g fill="#f5bda8" fill-opacity="1"><g transform="translate(251.906956, 266.381935)"><g><path d="M 6.621094 -7.675781 L 6.621094 -9.679688 C 6.3125 -9.8125 5.984375 -9.875 5.652344 -9.875 C 4.554688 -9.875 3.761719 -9.261719 3.253906 -8.074219 L 3.191406 -7.675781 L 3.191406 -9.679688 L 1.648438 -9.679688 L 1.648438 0 L 3.191406 0 L 3.191406 -4.839844 C 3.191406 -5.632812 3.367188 -6.335938 3.738281 -6.972656 C 3.914062 -7.304688 4.15625 -7.589844 4.445312 -7.808594 C 4.730469 -8.027344 5.082031 -8.160156 5.476562 -8.160156 C 5.875 -8.160156 6.246094 -7.984375 6.621094 -7.675781 Z M 6.621094 -7.675781 "/></g></g></g><g fill="#f5bda8" fill-opacity="1"><g transform="translate(258.747742, 266.381935)"><g><path d="M 11.109375 -5.058594 C 11.109375 -6.378906 10.582031 -7.523438 9.570312 -8.511719 C 8.578125 -9.457031 7.390625 -9.941406 6.050781 -9.941406 C 4.640625 -9.941406 3.453125 -9.4375 2.464844 -8.445312 C 1.472656 -7.457031 0.988281 -6.269531 0.988281 -4.882812 C 0.988281 -3.476562 1.472656 -2.289062 2.464844 -1.320312 C 2.925781 -0.859375 3.453125 -0.507812 4.070312 -0.242188 C 4.683594 0.0234375 5.410156 0.152344 6.269531 0.152344 C 7.128906 0.152344 7.964844 -0.109375 8.800781 -0.636719 C 9.636719 -1.164062 10.25 -1.914062 10.667969 -2.835938 L 8.910156 -2.835938 C 8.558594 -2.375 8.140625 -2.023438 7.632812 -1.761719 C 7.128906 -1.496094 6.597656 -1.386719 6.050781 -1.386719 C 5.214844 -1.386719 4.464844 -1.648438 3.804688 -2.199219 C 3.144531 -2.726562 2.726562 -3.410156 2.597656 -4.246094 L 11.109375 -4.246094 Z M 9.480469 -5.566406 L 2.617188 -5.566406 C 2.707031 -5.960938 2.859375 -6.335938 3.078125 -6.6875 C 3.785156 -7.832031 4.773438 -8.402344 6.050781 -8.402344 C 6.863281 -8.402344 7.589844 -8.140625 8.226562 -7.609375 C 8.886719 -7.0625 9.28125 -6.378906 9.480469 -5.566406 Z M 9.480469 -5.566406 "/></g></g></g><g fill="#f5bda8" fill-opacity="1"><g transform="translate(270.73561, 266.381935)"><g><path d="M 3.035156 -1.363281 C 2.660156 -1.628906 2.375 -2.066406 2.222656 -2.707031 L 0.59375 -2.707031 C 0.925781 -0.703125 2.199219 0.285156 4.445312 0.285156 C 4.972656 0.285156 5.457031 0.242188 5.917969 0.109375 C 6.378906 -0.0234375 6.773438 -0.199219 7.148438 -0.441406 C 7.898438 -0.945312 8.269531 -1.714844 8.269531 -2.75 C 8.269531 -3.804688 7.789062 -4.554688 6.773438 -5.039062 C 6.355469 -5.234375 5.894531 -5.390625 5.390625 -5.5 C 4.90625 -5.609375 4.445312 -5.742188 4.027344 -5.875 C 3.585938 -6.003906 3.234375 -6.179688 2.949219 -6.378906 C 2.660156 -6.578125 2.507812 -6.886719 2.507812 -7.324219 C 2.507812 -7.765625 2.683594 -8.09375 3.035156 -8.292969 C 3.386719 -8.511719 3.804688 -8.621094 4.265625 -8.621094 C 4.75 -8.621094 5.167969 -8.511719 5.5 -8.335938 C 5.828125 -8.160156 6.09375 -7.808594 6.246094 -7.28125 L 7.898438 -7.28125 C 7.699219 -8.25 7.28125 -8.929688 6.664062 -9.304688 C 6.027344 -9.699219 5.257812 -9.898438 4.3125 -9.898438 C 3.386719 -9.898438 2.574219 -9.636719 1.890625 -9.152344 C 1.230469 -8.644531 0.878906 -7.917969 0.878906 -6.953125 C 0.878906 -6.488281 1.011719 -6.070312 1.253906 -5.71875 C 1.519531 -5.34375 1.890625 -5.058594 2.375 -4.839844 C 2.816406 -4.640625 3.277344 -4.488281 3.761719 -4.355469 C 4.246094 -4.246094 4.707031 -4.113281 5.148438 -3.980469 C 6.136719 -3.652344 6.644531 -3.167969 6.644531 -2.550781 C 6.644531 -1.496094 5.9375 -0.988281 4.53125 -0.988281 C 3.9375 -0.988281 3.429688 -1.101562 3.035156 -1.363281 Z M 3.035156 -1.363281 "/></g></g></g></svg>